Coordinates
version=1
nRows=32
nColumns=30
inDegrees=yes

Units are S.I. units (second, meters, Newtons, ...)
Angles are in degrees.

endheader
time	floatyaw	floatroll	floatpitch	floatx	floaty	floatz	pro_sup_l	deviation_l	flexion_l	cmc_flexion_l	cmc_abduction_l	mp_flexion_l	ip_flexion_l	2mcp_flexion_l	2mcp_abduction_l	2pm_flexion_l	2md_flexion_l	3mcp_flexion_l	3mcp_abduction_l	3pm_flexion_l	3md_flexion_l	4mcp_flexion_l	4mcp_abduction_l	4pm_flexion_l	4md_flexion_l	5mcp_flexion_l	5mcp_abduction_l	5pm_flexion_l	5md_flexion_l
0.005000	-160.147433	-5.066637	-73.570646	-0.064123	-0.128568	-0.124174	15.162240	-25.752124	-2.302602	19.343540	-17.843607	-26.164511	-49.457035	46.118235	15.412769	49.458138	41.536457	52.930736	6.071141	53.862933	36.919950	37.397248	-6.563765	63.332603	50.523289	-1.781118	-12.852412	75.186967	57.750995
0.015000	-160.147433	-5.066637	-73.570646	-0.063386	-0.125086	-0.124250	13.647836	-25.480411	-2.568479	17.646002	-18.768234	-25.630180	-48.556382	47.295340	15.777263	48.011801	42.653352	54.163888	6.212728	54.267575	38.270622	38.169242	-6.615114	64.327614	52.604861	-2.430845	-13.083941	75.149588	59.085851
0.025000	-160.147433	-5.066637	-73.570646	-0.062352	-0.121760	-0.123936	12.586429	-24.799616	-2.491997	16.077469	-19.704327	-24.868108	-47.388758	47.031138	15.718081	46.451858	43.447071	53.995864	6.270507	54.097010	39.346465	38.168213	-6.573341	64.236664	53.892946	-2.877968	-13.149026	74.393265	59.828983
0.035000	-160.147433	-5.066637	-73.570646	-0.061369	-0.118825	-0.123529	11.932610	-24.051441	-2.192074	14.817492	-20.609274	-24.129821	-46.350530	45.952537	15.445350	45.213543	44.023024	53.092008	6.285174	53.675506	40.172348	37.730564	-6.501565	63.575605	54.547120	-3.146678	-13.129068	73.368599	60.166814
0.045000	-160.147433	-5.066637	-73.570646	-0.060627	-0.116524	-0.123224	11.611061	-23.467239	-1.827641	13.959036	-21.387856	-23.598128	-45.719396	44.680095	15.155087	44.538493	44.463606	52.057962	6.290427	53.278256	40.787893	37.159620	-6.452307	62.851571	54.789164	-3.271869	-13.085222	72.457419	60.274695
0.055000	-160.147433	-5.066637	-73.570646	-0.060159	-0.115030	-0.123085	11.521748	-23.115750	-1.521056	13.492409	-21.966230	-23.300072	-45.527768	43.623501	14.967122	44.401076	44.789302	51.254176	6.303178	53.032460	41.224101	36.640134	-6.450201	62.367613	54.811900	-3.300826	-13.042483	71.873018	60.267560
0.065000	-160.147433	-5.066637	-73.570646	-0.059885	-0.114361	-0.123084	11.559651	-22.931903	-1.327147	13.326200	-22.337180	-23.132795	-45.594490	42.927459	14.910029	44.578719	44.977955	50.772305	6.324351	52.920084	41.505159	36.235608	-6.491143	62.175924	54.740820	-3.280752	-12.996540	71.644192	60.195985
0.075000	-160.147433	-5.066637	-73.570646	-0.059697	-0.114364	-0.123154	11.638326	-22.798359	-1.243827	13.332803	-22.551264	-22.965525	-45.673885	42.538637	14.946759	44.805131	45.014820	50.529039	6.346751	52.853133	41.661451	35.935535	-6.554053	62.161881	54.641664	-3.244016	-12.933788	71.669788	60.072432
0.085000	-160.147433	-5.066637	-73.570646	-0.059516	-0.114764	-0.123237	11.704513	-22.627267	-1.239711	13.395649	-22.675251	-22.733125	-45.607592	42.323151	15.017557	44.904764	44.926729	50.392431	6.363376	52.757398	41.735228	35.708367	-6.615854	62.175654	54.546274	-3.204066	-12.849125	71.805202	59.903027
0.095000	-160.147433	-5.066637	-73.570646	-0.059321	-0.115270	-0.123306	11.738753	-22.399924	-1.277791	13.439135	-22.755883	-22.461255	-45.386035	42.165476	15.075361	44.841328	44.776414	50.270235	6.371569	52.614557	41.771972	35.532379	-6.661654	62.127575	54.471901	-3.162879	-12.751639	71.935678	59.705243
0.105000	-160.147433	-5.066637	-73.570646	-0.059135	-0.115665	-0.123352	11.745906	-22.154958	-1.327256	13.434513	-22.810613	-22.224329	-45.106242	42.011580	15.100471	44.681042	44.629327	50.134616	6.372649	52.453299	41.804502	35.400401	-6.687393	62.010962	54.425899	-3.121162	-12.658689	72.007975	59.506163
0.115000	-160.147433	-5.066637	-73.570646	-0.058991	-0.115857	-0.123376	11.742648	-21.946829	-1.365768	13.387353	-22.840923	-22.081490	-44.880137	41.859677	15.096070	44.518480	44.521842	49.999877	6.369497	52.313741	41.841980	35.310121	-6.696857	61.869330	54.402604	-3.083219	-12.585831	72.021097	59.329534
0.125000	-160.147433	-5.066637	-73.570646	-0.058904	-0.115870	-0.123379	11.746939	-21.807271	-1.378299	13.318265	-22.850052	-22.038002	-44.761816	41.727309	15.075127	44.417173	44.450759	49.887412	6.364614	52.217079	41.871085	35.254359	-6.696737	61.749696	54.382868	-3.055125	-12.540017	71.997856	59.184470
0.135000	-160.147433	-5.066637	-73.570646	-0.058864	-0.115798	-0.123357	11.771345	-21.731114	-1.356921	13.247429	-22.850925	-22.050272	-44.730881	41.623799	15.049149	44.390539	44.385702	49.803936	6.359535	52.157763	41.868331	35.219005	-6.692747	61.674414	54.341212	-3.040229	-12.518958	71.960285	59.064015
0.145000	-160.147433	-5.066637	-73.570646	-0.058845	-0.115735	-0.123310	11.820275	-21.687413	-1.301767	13.187703	-22.862207	-22.060073	-44.724717	41.541374	15.023615	44.416915	44.293011	49.739661	6.355135	52.115107	41.816467	35.187817	-6.688031	61.638913	54.258187	-3.036739	-12.514880	71.919414	58.953413
0.155000	-160.147433	-5.066637	-73.570646	-0.058823	-0.115740	-0.123240	11.890506	-21.641952	-1.220669	13.144724	-22.899033	-22.029144	-44.685656	41.462064	14.998974	44.465772	44.156437	49.678393	6.351997	52.070083	41.716289	35.148729	-6.683476	61.624229	54.131044	-3.039281	-12.519143	71.876840	58.841478
0.165000	-160.147433	-5.066637	-73.570646	-0.058785	-0.115819	-0.123160	11.974002	-21.574990	-1.125778	13.119186	-22.965799	-21.953361	-44.590813	41.369872	14.973617	44.515572	43.984617	49.608132	6.350476	52.015091	41.588079	35.097221	-6.678825	61.610304	53.976376	-3.042700	-12.525256	71.830396	58.727492
0.175000	-160.147433	-5.066637	-73.570646	-0.058733	-0.115942	-0.123077	12.061751	-21.485885	-1.028341	13.108027	-23.054906	-21.854165	-44.453644	41.259063	14.946107	44.557637	43.804211	49.525718	6.350602	51.953553	41.462707	35.035892	-6.673658	61.583088	53.823097	-3.044709	-12.529977	71.778345	58.620122
0.185000	-160.147433	-5.066637	-73.570646	-0.058677	-0.116068	-0.122998	12.147209	-21.386196	-0.934641	13.105076	-23.151404	-21.758945	-44.306873	41.135053	14.915972	44.591412	43.645099	49.435478	6.352083	51.893563	41.367801	34.971906	-6.667845	61.536057	53.699662	-3.045327	-12.533245	71.720682	58.530536
0.195000	-160.147433	-5.066637	-73.570646	-0.058628	-0.116170	-0.122922	12.228037	-21.288656	-0.845310	13.103247	-23.240780	-21.684352	-44.182687	41.009587	14.883624	44.618583	43.526343	49.345029	6.354513	51.841550	41.316396	34.914014	-6.661552	61.469478	53.622246	-3.044009	-12.537356	71.658559	58.465047
0.205000	-160.147433	-5.066637	-73.570646	-0.058591	-0.116243	-0.122847	12.305559	-21.199239	-0.757797	13.098121	-23.315770	-21.630156	-44.099969	40.894128	14.849967	44.639779	43.449405	49.261159	6.357582	51.799268	41.303338	34.869771	-6.655021	61.389250	53.589442	-3.037434	-12.545359	71.593125	58.421839
0.215000	-160.147433	-5.066637	-73.570646	-0.058565	-0.116301	-0.122770	12.382515	-21.115582	-0.669813	13.090264	-23.378557	-21.583543	-44.060426	40.794870	14.815957	44.654006	43.400490	49.187316	6.361105	51.764065	41.310242	34.843251	-6.648340	61.305075	53.585181	-3.020291	-12.559061	71.524888	58.392959
0.225000	-160.147433	-5.066637	-73.570646	-0.058545	-0.116361	-0.122692	12.460625	-21.030582	-0.581403	13.084271	-23.437417	-21.529077	-44.051954	40.711083	14.782314	44.659810	43.359381	49.123122	6.364870	51.730865	41.315407	34.833741	-6.641368	61.227421	53.587386	-2.988670	-12.577664	71.454171	58.369439
0.235000	-160.147433	-5.066637	-73.570646	-0.058524	-0.116440	-0.122616	12.539331	-20.937715	-0.494599	13.085343	-23.500258	-21.458242	-44.056703	40.636701	14.749498	44.657077	43.309469	49.065471	6.368502	51.694445	41.303361	34.835891	-6.633895	61.163887	53.577699	-2.943410	-12.597950	71.382232	58.345901
0.245000	-160.147433	-5.066637	-73.570646	-0.058498	-0.116540	-0.122547	12.616099	-20.834866	-0.411441	13.095899	-23.569055	-21.373868	-44.059888	40.563838	14.717835	44.648213	43.243980	49.010228	6.371523	51.651310	41.269787	34.841273	-6.625929	61.116509	53.547889	-2.890815	-12.615815	71.311699	58.321881
0.255000	-160.147433	-5.066637	-73.570646	-0.058468	-0.116654	-0.122484	12.687526	-20.725211	-0.332286	13.114118	-23.637993	-21.287986	-44.054549	40.486503	14.687506	44.637792	43.166056	48.953729	6.373543	51.600752	41.220420	34.841001	-6.617886	61.081406	53.500459	-2.840131	-12.628024	71.245439	58.299497
0.265000	-160.147433	-5.066637	-73.570646	-0.058435	-0.116773	-0.122426	12.750363	-20.615487	-0.256064	13.134743	-23.695754	-21.215167	-44.040006	40.403049	14.658378	44.630850	43.083902	48.893934	6.374430	51.544830	41.165497	34.828810	-6.610480	61.051103	53.443988	-2.799339	-12.633180	71.184646	58.279658
0.275000	-160.147433	-5.066637	-73.570646	-0.058400	-0.116884	-0.122369	12.802204	-20.512953	-0.182256	13.151415	-23.730627	-21.165244	-44.016594	40.316381	14.629971	44.630945	43.004897	48.831205	6.374362	51.487307	41.113444	34.803557	-6.604375	61.018315	53.386687	-2.771806	-12.631693	71.127926	58.260001
0.285000	-160.147433	-5.066637	-73.570646	-0.058365	-0.116983	-0.122313	12.842217	-20.422443	-0.112627	13.159281	-23.736296	-21.138862	-43.981897	40.231851	14.601807	44.639008	42.932477	48.768361	6.373794	51.432054	41.067583	34.769729	-6.599805	60.979098	53.332551	-2.755638	-12.625265	71.072420	58.236394
0.295000	-160.147433	-5.066637	-73.570646	-0.058331	-0.117070	-0.122262	12.871987	-20.344600	-0.050755	13.156697	-23.715714	-21.127501	-43.931768	40.153930	14.573900	44.653274	42.866825	48.709513	6.373383	51.381696	41.027055	34.735117	-6.596433	60.933930	53.282097	-2.745836	-12.616426	71.016203	58.206732
0.305000	-160.147433	-5.066637	-73.570646	-0.058298	-0.117148	-0.122219	12.895746	-20.275921	0.000523	13.145518	-23.680901	-21.117697	-43.864852	40.083649	14.546934	44.670057	42.807232	48.657965	6.373852	51.337166	40.990028	34.706573	-6.593514	60.886870	53.235712	-2.737651	-12.608176	70.960129	58.173707
0.315000	-160.147433	-5.066637	-73.570646	-0.058265	-0.117223	-0.122189	12.919189	-20.210477	0.041688	13.130456	-23.648359	-21.097435	-43.786454	40.018411	14.521919	44.684956	42.753352	48.614319	6.375759	51.298288	40.956002	34.686378	-6.590231	60.843811	53.195758	-2.728946	-12.603535	70.907809	58.144030
